<?xml version="1.0" standalone="no"?>
<!DOCTYPE svg PUBLIC "-//W3C//DTD SVG 20010904//EN"
 "http://www.w3.org/TR/2001/REC-SVG-20010904/DTD/svg10.dtd">
<svg version="1.0" xmlns="http://www.w3.org/2000/svg"
 width="48.000000pt" height="48.000000pt" viewBox="0 0 48.000000 48.000000"
 preserveAspectRatio="xMidYMid meet">

<g transform="translate(0.000000,48.000000) scale(0.100000,-0.100000)"
fill="#000000" stroke="none">
<path d="M116 292 c-53 -92 -96 -175 -96 -185 0 -10 8 -17 19 -17 14 0 30 19
53 60 l33 60 47 0 48 0 0 -95 0 -95 110 0 110 0 0 115 0 115 -65 0 -65 0 0
-40 c0 -33 3 -40 20 -40 13 0 20 7 20 20 0 15 7 20 25 20 24 0 25 -2 25 -75
l0 -75 -70 0 -70 0 0 180 0 180 90 0 c83 0 90 1 90 20 0 19 -7 20 -114 20
l-113 0 -97 -168z m101 -39 c-3 -2 -18 -3 -35 -1 l-30 3 32 55 31 55 3 -54 c2
-29 1 -55 -1 -58z"/>
</g>
</svg>
